<svg version="1.2" xmlns="http://www.w3.org/2000/svg" viewBox="0 0 16 16" width="16" height="16">
	<title>funnel-16</title>
	<style>
		.s0 { fill: #126dfe } 
	</style>
	<path class="s0" d="m1.5 2q0-0.1 0-0.2 0.1-0.1 0.1-0.2 0.1 0 0.2-0.1 0.1 0 0.2 0h12q0.1 0 0.2 0 0.1 0.1 0.2 0.1 0 0.1 0.1 0.2 0 0.1 0 0.2v1.5q0 0 0 0.1 0 0 0 0.1-0.1 0-0.1 0.1 0 0 0 0.1l-4.9 4.8v4.8q0 0.1 0 0.2-0.1 0.1-0.1 0.2-0.1 0-0.2 0.1-0.1 0-0.2 0h-2q-0.1 0-0.2 0-0.1-0.1-0.2-0.1 0-0.1-0.1-0.2 0-0.1 0-0.2v-4.8l-4.9-4.8q0-0.1 0-0.1 0-0.1-0.1-0.1 0-0.1 0-0.1 0-0.1 0-0.1z"/>
</svg>