<svg version="1.2" xmlns="http://www.w3.org/2000/svg" viewBox="0 0 48 48" width="48" height="48">
	<title>funnel-48</title>
	<style>
		.s0 { fill: #126dfe } 
	</style>
	<path class="s0" d="m4.5 6q0-0.3 0.1-0.6 0.1-0.2 0.3-0.5 0.3-0.2 0.5-0.3 0.3-0.1 0.6-0.1h36q0.3 0 0.6 0.1 0.2 0.1 0.5 0.3 0.2 0.3 0.3 0.5 0.1 0.3 0.1 0.6v4.5q0 0.1 0 0.3-0.1 0.1-0.1 0.3-0.1 0.1-0.2 0.2 0 0.2-0.1 0.3l-14.6 14.5v14.4q0 0.3-0.1 0.6-0.1 0.2-0.3 0.5-0.3 0.2-0.5 0.3-0.3 0.1-0.6 0.1h-6q-0.3 0-0.6-0.1-0.2-0.1-0.5-0.3-0.2-0.3-0.3-0.5-0.1-0.3-0.1-0.6v-14.4l-14.6-14.5q-0.1-0.1-0.1-0.3-0.1-0.1-0.2-0.2 0-0.2-0.1-0.3 0-0.2 0-0.3z"/>
</svg>