<svg version="1.2" xmlns="http://www.w3.org/2000/svg" viewBox="0 0 128 128" width="128" height="128">
	<title>funnel-128</title>
	<style>
		.s0 { fill: #126dfe } 
	</style>
	<path class="s0" d="m12 16q0-0.8 0.3-1.5 0.3-0.8 0.9-1.3 0.5-0.6 1.3-0.9 0.7-0.3 1.5-0.3h96q0.8 0 1.5 0.3 0.8 0.3 1.3 0.9 0.6 0.5 0.9 1.3 0.3 0.7 0.3 1.5v12q0 0.4-0.1 0.8-0.1 0.4-0.2 0.7-0.2 0.4-0.4 0.7-0.2 0.3-0.5 0.6l-38.8 38.9v38.3q0 0.8-0.3 1.5-0.3 0.8-0.9 1.3-0.5 0.6-1.3 0.9-0.7 0.3-1.5 0.3h-16q-0.8 0-1.5-0.3-0.8-0.3-1.3-0.9-0.6-0.5-0.9-1.3-0.3-0.7-0.3-1.5v-38.3l-38.8-38.9q-0.3-0.3-0.5-0.6-0.2-0.3-0.4-0.7-0.1-0.3-0.2-0.7-0.1-0.4-0.1-0.8z"/>
</svg>